<?xml version="1.0" standalone="no"?>
<!DOCTYPE svg PUBLIC "-//W3C//DTD SVG 20010904//EN"
 "http://www.w3.org/TR/2001/REC-SVG-20010904/DTD/svg10.dtd">
<svg version="1.0" xmlns="http://www.w3.org/2000/svg"
 width="306.000000pt" height="306.000000pt" viewBox="0 0 306.000000 306.000000"
 preserveAspectRatio="xMidYMid meet">
<metadata>
Created by potrace 1.11, written by Peter Selinger 2001-2013
</metadata>
<g transform="translate(0.000000,306.000000) scale(0.100000,-0.100000)"
fill="#000000" stroke="none">
<path d="M1350 2995 c0 -8 -7 -15 -16 -15 -8 0 -13 4 -10 8 3 5 -10 9 -29 10
-24 1 -35 -3 -35 -12 0 -9 -26 -20 -72 -31 -40 -10 -108 -31 -151 -47 -43 -17
-84 -31 -90 -32 -15 -2 -60 -27 -67 -35 -6 -8 -65 -43 -150 -89 -64 -35 -108
-63 -143 -92 -22 -18 -81 -100 -72 -100 10 0 -48 -46 -67 -53 -33 -12 -20 -30
17 -24 32 5 33 4 22 -13 -8 -13 -21 -19 -41 -17 -23 1 -31 -3 -34 -18 -2 -11
-9 -23 -15 -27 -8 -5 -6 -13 6 -26 17 -19 16 -21 -28 -48 -25 -16 -45 -33 -45
-37 0 -5 10 -1 22 7 12 9 25 16 29 16 4 0 21 -22 39 -50 18 -27 36 -50 41 -50
5 0 -7 24 -26 54 -25 40 -31 56 -22 65 17 17 31 14 54 -11 19 -21 57 -98 51
-103 -2 -1 -23 -6 -48 -11 l-45 -9 47 -28 c33 -19 45 -32 41 -43 -4 -12 -11
-10 -37 11 -17 14 -44 32 -61 41 l-30 16 35 -38 c31 -34 18 -31 -19 4 -11 11
-15 11 -22 1 -4 -8 -3 -16 2 -20 6 -3 10 -10 10 -15 -1 -5 2 -9 7 -10 4 0 18
-5 32 -11 65 -27 64 -27 110 44 24 38 43 77 42 88 -1 12 2 15 6 8 5 -8 23 7
52 44 56 69 163 162 256 222 120 77 112 71 89 68 -15 -1 -20 4 -22 23 -1 14 0
18 3 8 9 -30 38 7 30 38 -5 17 -1 30 10 42 16 16 17 15 12 -12 -5 -22 -2 -30
13 -33 11 -3 19 -10 19 -15 0 -5 5 -6 10 -3 6 3 10 2 10 -4 0 -10 -38 -27 -52
-23 -5 1 -8 -3 -8 -9 0 -7 7 -8 18 -4 181 79 285 104 457 112 178 8 326 -16
484 -79 59 -23 76 -26 83 -16 8 10 9 10 6 -2 -3 -9 25 -33 80 -67 175 -110
280 -212 387 -376 56 -87 121 -229 150 -331 13 -44 14 -45 9 -11 -8 51 -9 54
-23 89 -6 16 -9 31 -7 34 3 2 -2 11 -10 19 -8 9 -12 23 -9 31 3 8 0 19 -7 24
-10 6 -10 10 2 18 13 8 13 10 -1 10 -9 0 -23 7 -30 16 -12 15 -11 16 11 9 14
-4 31 -10 38 -12 15 -6 16 19 0 35 -9 9 -8 12 5 12 21 0 42 -36 24 -43 -7 -3
-5 -6 6 -6 9 -1 17 -5 17 -10 0 -13 59 -19 69 -7 19 24 22 75 7 99 -9 13 -13
26 -10 29 3 4 1 16 -6 27 -8 16 -21 21 -53 22 l-42 1 33 14 c36 16 39 31 16
77 -32 62 -82 116 -104 110 -11 -3 -20 -12 -20 -20 0 -11 -3 -11 -14 -1 -8 7
-13 14 -11 16 2 2 -8 14 -21 27 -13 13 -24 33 -24 44 0 11 -11 28 -25 37 -14
9 -25 24 -26 33 0 9 -5 4 -11 -11 -5 -16 -14 -28 -19 -28 -12 0 -11 16 2 43
10 22 10 22 -10 0 -10 -13 -25 -23 -33 -23 -8 1 -7 4 5 11 19 11 24 49 6 49
-8 0 -8 4 0 14 9 11 5 19 -20 40 -18 15 -38 25 -45 22 -8 -3 -14 0 -14 7 0 7
-14 18 -31 24 -17 7 -28 17 -24 22 3 6 0 11 -8 11 -8 0 -20 14 -27 30 -7 17
-21 35 -31 41 -22 11 -23 9 -8 -24 8 -18 8 -30 0 -43 -9 -17 -10 -18 -11 -1 0
9 -4 17 -10 17 -5 0 -10 12 -10 28 -1 23 -36 83 -43 71 -30 -52 -34 -64 -17
-54 6 3 10 1 10 -4 0 -6 -4 -11 -9 -11 -17 0 -22 19 -11 41 10 18 7 26 -21 55
-28 29 -38 34 -64 29 -23 -5 -26 -4 -15 4 11 9 6 10 -23 7 -21 -3 -49 2 -65
10 -15 7 -37 14 -50 14 -13 0 -21 4 -18 9 4 5 -5 4 -19 -2 -13 -7 -20 -13 -15
-15 6 -2 10 -12 10 -22 0 -10 6 -20 13 -22 6 -3 12 -16 12 -29 1 -40 -37 -36
-71 8 -15 20 -23 34 -18 30 6 -3 16 -2 24 3 12 7 12 11 0 25 -11 13 -23 15
-52 11 -33 -6 -42 -3 -64 21 -23 25 -33 28 -90 29 -47 0 -64 -3 -64 -13 0 -15
-32 -17 -46 -3 -6 6 -29 11 -52 13 -23 1 -42 5 -42 10 0 4 -4 7 -10 7 -5 0
-10 -7 -10 -15z m-30 -69 c0 -2 -7 -7 -16 -10 -8 -3 -12 -2 -9 4 6 10 25 14
25 6z m540 -111 c14 -16 10 -18 -14 -9 -9 3 -16 10 -16 15 0 14 16 11 30 -6z
m-498 -80 c0 -5 -5 -11 -11 -13 -6 -2 -11 4 -11 13 0 9 5 15 11 13 6 -2 11 -8
11 -13z m726 -12 c-25 -24 -30 -25 -55 -14 -21 10 -24 14 -12 21 10 7 15 5 17
-5 4 -20 12 -19 42 5 36 28 39 25 8 -7z m-253 5 c14 -6 25 -15 25 -19 0 -4
-13 -1 -30 7 -45 23 -41 33 5 12z m404 -43 c0 -5 -6 1 -14 15 -8 14 -14 30
-14 35 0 6 6 -1 14 -15 8 -14 14 -29 14 -35z m-120 -36 c-8 -5 -15 -4 -17 2
-3 6 -9 5 -18 -2 -12 -10 -18 -9 -31 3 -18 19 -10 38 18 38 10 0 24 9 31 20
12 19 14 18 22 -16 6 -27 5 -38 -5 -45z m-209 15 c0 -2 -9 0 -20 6 -11 6 -20
13 -20 16 0 2 9 0 20 -6 11 -6 20 -13 20 -16z m-740 6 c0 -5 -7 -10 -16 -10
-8 0 -12 5 -9 10 3 6 10 10 16 10 5 0 9 -4 9 -10z m1060 -26 c0 -24 -14 -32
-25 -14 -9 14 4 52 16 45 5 -4 9 -17 9 -31z m-1110 2 c0 -2 -7 -6 -15 -10 -8
-3 -15 -1 -15 4 0 6 7 10 15 10 8 0 15 -2 15 -4z m1001 -36 c5 0 9 -10 9 -22
0 -20 -1 -20 -18 -5 -10 10 -21 15 -24 12 -2 -3 -5 2 -5 10 0 10 6 14 14 10 8
-3 19 -5 24 -5z m-1401 -33 c0 -8 -3 -8 -9 1 -6 10 -10 9 -14 -7 -3 -14 -10
-19 -21 -15 -9 3 -23 1 -31 -6 -9 -7 -18 -10 -21 -7 -8 7 78 57 88 51 4 -3 8
-11 8 -17z m-105 -79 c-10 -25 -80 -67 -95 -58 -10 6 0 17 33 41 26 18 47 37
47 43 0 7 4 6 10 0 6 -6 8 -18 5 -26z m92 -25 c-3 -10 -5 -2 -5 17 0 19 2 27
5 18 2 -10 2 -26 0 -35z m1783 23 c9 -12 8 -15 -8 -13 -12 0 -18 6 -15 14 6
16 8 16 23 -1z m-1 -57 c-16 -10 -23 -4 -14 10 3 6 11 8 17 5 6 -4 5 -9 -3
-15z m-1905 -4 c-4 -8 -13 -15 -22 -15 -13 0 -12 3 4 15 24 18 25 18 18 0z
m121 -14 c-1 -15 -9 -38 -18 -51 -14 -20 -20 -22 -39 -12 -16 7 -18 11 -7 11
10 1 21 17 28 41 14 47 40 55 36 11z m1855 -136 c13 -14 21 -25 18 -25 -2 0
-15 11 -28 25 -13 14 -21 25 -18 25 2 0 15 -11 28 -25z m121 5 c16 0 10 -30
-7 -37 -17 -6 -34 12 -34 36 0 8 6 11 16 7 9 -3 20 -6 25 -6z m-170 -12 c7
-62 5 -68 -12 -52 -10 9 -14 24 -11 39 5 26 21 34 23 13z m39 -101 c0 -10 -4
-15 -10 -12 -5 3 -10 18 -10 33 0 21 2 24 10 12 5 -8 10 -23 10 -33z m67 18
c9 -24 -1 -27 -15 -5 -8 13 -8 20 -2 20 6 0 13 -7 17 -15z m123 0 c0 -6 -60
-44 -78 -49 -22 -7 -22 -6 -10 16 7 12 17 26 21 29 7 5 67 9 67 4z"/>
<path d="M1475 2990 c-3 -5 1 -10 10 -10 9 0 13 5 10 10 -3 6 -8 10 -10 10 -2
0 -7 -4 -10 -10z"/>
<path d="M2512 2528 c5 -15 28 -23 28 -10 0 5 -7 13 -16 16 -10 4 -14 1 -12
-6z"/>
<path d="M2564 2473 c10 -11 37 -12 30 -2 -3 5 -12 9 -21 9 -9 0 -13 -3 -9 -7z"/>
<path d="M1000 2318 c-53 -29 -48 -108 9 -133 23 -10 23 -11 17 -145 -16 -334
-39 -551 -97 -925 -50 -324 -53 -374 -20 -409 32 -34 79 -35 110 -2 29 31 36
94 51 475 12 320 31 554 60 776 26 196 27 198 48 190 45 -16 131 -76 194 -134
62 -58 158 -170 158 -186 0 -3 -23 -44 -51 -90 -97 -161 -155 -330 -142 -413
20 -129 132 -194 246 -144 65 29 142 110 177 185 60 127 48 249 -41 424 l-49
95 19 27 c36 48 165 169 221 205 l55 36 8 -37 c20 -93 48 -313 67 -516 26
-292 34 -347 55 -391 31 -64 96 -74 132 -20 27 42 21 85 -20 146 -27 38 -40
71 -47 113 -10 72 -30 426 -33 614 l-2 133 35 12 c47 15 69 59 49 95 -12 22
-23 27 -64 29 -70 5 -126 -14 -211 -70 -77 -49 -213 -179 -274 -261 -19 -25
-37 -46 -40 -46 -3 0 -20 19 -38 44 -86 113 -235 241 -348 296 -75 37 -190 50
-234 27z m640 -717 c38 -119 23 -240 -37 -303 -38 -39 -77 -37 -118 6 -70 75
-57 185 43 364 l46 83 23 -43 c12 -24 32 -72 43 -107z"/>
<path d="M265 2140 c3 -5 10 -10 16 -10 5 0 9 5 9 10 0 6 -7 10 -16 10 -8 0
-12 -4 -9 -10z"/>
<path d="M263 2113 c9 -2 23 -2 30 0 6 3 -1 5 -18 5 -16 0 -22 -2 -12 -5z"/>
<path d="M280 2093 c0 -7 -10 -13 -22 -13 -16 0 -19 -3 -10 -8 9 -7 8 -13 -8
-27 -13 -12 -18 -26 -15 -39 3 -12 2 -16 -1 -9 -7 15 -34 5 -34 -13 0 -8 -6
-14 -13 -14 -16 0 -68 -70 -61 -82 3 -4 24 -5 47 -2 41 6 71 29 61 45 -3 5 -3
9 0 9 2 0 13 3 23 6 11 4 14 3 7 -3 -6 -4 -14 -18 -18 -30 -6 -19 -4 -23 13
-23 15 0 19 -5 14 -17 -3 -11 2 -7 13 7 10 14 18 28 16 33 -1 4 2 7 6 7 5 0
14 11 20 25 7 15 8 25 2 25 -6 0 -10 -5 -10 -11 0 -5 -5 -7 -11 -3 -8 4 -2 12
15 21 32 17 34 32 2 26 -20 -4 -24 0 -28 29 -3 18 -2 35 3 38 4 3 4 12 -1 20
-7 10 -10 11 -10 3z m-20 -63 c0 -5 -5 -10 -11 -10 -5 0 -7 5 -4 10 3 6 8 10
11 10 2 0 4 -4 4 -10z"/>
<path d="M450 2071 c7 -13 7 -22 0 -26 -5 -3 -10 1 -10 9 0 11 -6 13 -17 9
-29 -11 -43 -30 -43 -57 0 -28 15 -42 26 -25 5 8 3 9 -6 4 -9 -5 -11 -4 -6 4
4 6 11 9 16 6 5 -3 11 -1 15 5 3 5 11 10 17 10 6 0 3 -9 -6 -19 -10 -10 -13
-22 -8 -25 5 -3 21 22 35 55 14 32 22 57 17 54 -5 -3 -11 -1 -15 5 -12 19 -26
11 -15 -9z"/>
<path d="M330 2055 c-7 -9 -11 -17 -9 -20 3 -2 10 5 17 15 14 24 10 26 -8 5z"/>
<path d="M2764 1985 c-18 -15 -18 -15 10 -13 16 2 31 9 34 16 5 17 -20 15 -44
-3z"/>
<path d="M420 1943 c0 -12 -37 -24 -43 -14 -2 3 -3 1 -1 -5 1 -6 -3 -17 -9
-23 -8 -8 -8 -11 1 -11 6 0 9 -8 6 -17 -5 -15 -3 -15 10 1 12 15 16 16 17 5 0
-8 7 4 15 25 8 22 12 42 9 44 -3 3 -5 1 -5 -5z"/>
<path d="M2719 1880 c-8 -6 -8 -13 0 -26 6 -12 11 -14 11 -5 0 9 8 11 25 7 25
-6 31 0 17 20 -8 12 -35 14 -53 4z"/>
<path d="M156 1856 c-33 -6 -61 -17 -64 -24 -3 -9 4 -11 25 -6 26 7 27 6 13
-11 -14 -17 -13 -18 8 -13 15 4 25 1 31 -10 13 -23 20 -21 36 8 8 14 15 21 15
15 1 -17 20 19 20 38 0 19 -1 19 -84 3z"/>
<path d="M391 1844 c0 -11 3 -14 6 -6 3 7 2 16 -1 19 -3 4 -6 -2 -5 -13z"/>
<path d="M381 1804 c0 -11 3 -14 6 -6 3 7 2 16 -1 19 -3 4 -6 -2 -5 -13z"/>
<path d="M264 1795 c3 -9 6 -23 6 -30 0 -7 7 -12 16 -11 22 3 74 -44 74 -68 0
-35 7 -12 14 44 4 33 3 50 -2 42 -8 -11 -20 -8 -62 13 -42 22 -52 23 -46 10z"/>
<path d="M2696 1755 c3 -16 8 -94 11 -172 8 -200 -28 -390 -104 -548 -12 -25
-12 -27 0 -12 8 9 20 17 28 17 11 0 11 2 1 9 -24 15 11 33 42 21 37 -14 53
-13 39 1 -8 8 -8 20 -2 36 5 14 7 28 4 32 -7 12 46 142 67 163 20 20 49 24 43
6 -2 -7 -13 -46 -25 -85 -11 -40 -25 -73 -30 -73 -5 0 -7 7 -4 15 4 8 3 15 0
15 -9 0 -26 -46 -31 -85 -3 -29 -2 -32 20 -27 13 2 35 16 49 31 25 26 26 32
17 71 -7 31 -6 52 4 81 8 22 14 40 14 42 0 3 8 28 17 52 4 11 7 23 6 27 -1 4
5 5 14 1 14 -5 15 -3 5 15 -6 11 -24 23 -41 27 -16 4 -30 11 -30 17 0 10 29 7
64 -7 14 -6 18 -5 14 6 -2 8 -14 15 -26 17 -24 4 -21 24 11 60 15 16 18 25 10
33 -9 9 -16 2 -27 -25 -11 -26 -19 -35 -28 -29 -7 4 -20 8 -28 9 -25 1 -50 16
-44 25 3 5 1 9 -4 9 -5 0 -9 23 -9 50 1 47 3 50 27 50 l25 -1 -23 -19 c-13
-11 -22 -23 -20 -27 2 -5 14 -26 28 -47 20 -34 25 -36 31 -20 3 10 4 23 1 28
-3 5 0 6 5 3 6 -4 18 4 27 18 18 27 16 28 -29 38 -11 3 -3 5 18 6 31 1 39 6
48 28 5 14 8 31 5 37 -3 7 -5 6 -5 -1 -1 -7 -6 -13 -13 -13 -6 0 -20 -7 -30
-17 -23 -20 -31 -12 -30 28 1 24 -2 28 -12 19 -10 -8 -15 -7 -20 5 -3 9 -13
15 -23 13 -10 -2 -22 7 -30 22 -7 14 -13 21 -14 15 0 -5 -5 1 -10 15 -8 23 -8
22 -3 -5z m144 -352 c0 -5 -10 -21 -21 -38 -20 -28 -21 -29 -15 -5 3 14 6 31
6 38 0 6 7 12 15 12 8 0 15 -3 15 -7z m-120 -102 c-5 -11 -15 -23 -22 -27 -6
-4 -9 -3 -6 2 3 5 8 17 11 27 4 9 11 17 17 17 8 0 8 -6 0 -19z"/>
<path d="M145 1710 c3 -5 16 -10 28 -10 18 0 19 2 7 10 -20 13 -43 13 -35 0z"/>
<path d="M260 1679 c0 -5 20 -14 45 -21 l45 -12 0 -51 0 -50 -18 27 c-28 43
-45 21 -22 -30 11 -23 23 -42 27 -42 5 0 10 -12 11 -26 2 -22 -1 -24 -19 -19
-12 4 -49 23 -81 42 -85 50 -96 29 -16 -28 35 -24 78 -49 96 -55 l32 -12 0
127 0 126 -50 17 c-28 9 -50 12 -50 7z"/>
<path d="M77 1657 c-3 -9 1 -21 9 -28 20 -17 25 -8 10 20 -10 19 -14 20 -19 8z"/>
<path d="M188 1605 c2 -14 8 -23 12 -20 5 3 31 -20 58 -51 27 -30 52 -52 55
-47 5 8 -114 143 -126 143 -2 0 -2 -11 1 -25z"/>
<path d="M2905 1577 c-4 -10 -5 -21 -1 -24 10 -10 18 4 13 24 -4 17 -4 17 -12
0z"/>
<path d="M371 1314 c0 -11 3 -14 6 -6 3 7 2 16 -1 19 -3 4 -6 -2 -5 -13z"/>
<path d="M381 1264 c0 -11 3 -14 6 -6 3 7 2 16 -1 19 -3 4 -6 -2 -5 -13z"/>
<path d="M391 1224 c0 -11 3 -14 6 -6 3 7 2 16 -1 19 -3 4 -6 -2 -5 -13z"/>
<path d="M405 1177 c5 -25 4 -27 -14 -18 -24 13 -34 14 -27 3 3 -5 -2 -9 -10
-9 -9 0 -13 6 -10 14 4 8 1 11 -5 7 -6 -3 -9 -14 -6 -24 3 -13 0 -17 -10 -13
-13 5 -14 3 -3 -18 12 -22 12 -23 -3 -10 -15 12 -17 11 -17 -8 0 -14 -8 -22
-27 -26 -89 -18 -99 -24 -101 -55 -2 -25 1 -30 19 -30 18 0 19 -2 9 -15 -10
-12 -7 -27 15 -82 29 -73 116 -242 146 -284 10 -15 19 -30 19 -33 0 -9 83
-116 90 -116 4 0 13 7 20 15 7 8 19 15 27 15 8 0 11 4 8 10 -3 5 0 7 9 4 10
-4 13 -15 9 -40 -5 -31 -4 -34 20 -34 16 0 33 10 47 27 15 20 18 22 10 6 -5
-12 -15 -25 -21 -29 -23 -14 15 -22 41 -9 23 12 31 12 56 -1 37 -19 54 -36 34
-34 -30 4 -51 0 -45 -10 3 -5 20 -7 38 -4 25 3 28 2 12 -5 -19 -9 -18 -10 4
-10 43 -2 191 23 191 31 0 4 12 8 26 8 26 0 104 38 104 50 0 3 -25 18 -55 33
-43 21 -53 23 -48 10 5 -13 2 -15 -16 -10 -12 3 -41 -1 -64 -9 -37 -13 -48
-13 -99 2 -32 10 -60 25 -63 33 -3 9 -15 27 -26 41 l-20 25 6 -40 c6 -37 5
-38 -8 -20 -15 21 -16 100 -2 113 4 4 5 -3 2 -15 -5 -24 8 -32 16 -10 3 6 6 3
6 -8 1 -17 3 -17 11 -5 8 12 10 11 10 -7 0 -12 5 -25 10 -28 6 -4 10 10 10 34
0 22 5 41 13 44 11 3 113 -65 129 -87 3 -5 14 -11 24 -12 20 -3 18 -2 -71 63
-166 121 -301 300 -387 512 -22 53 -37 83 -33 68z m25 -67 c0 -15 -5 -12 -26
11 -19 22 -19 22 4 10 12 -6 22 -16 22 -21z m10 -54 c8 -11 9 -16 1 -16 -6 0
-11 5 -11 11 0 5 -4 8 -9 4 -6 -3 -15 4 -21 15 -10 19 -10 20 8 11 10 -5 24
-17 32 -25z m-103 -18 c-3 -8 -6 -5 -6 6 -1 11 2 17 5 13 3 -3 4 -12 1 -19z
m-37 -10 c0 -16 -3 -19 -11 -11 -6 6 -8 16 -5 22 11 17 16 13 16 -11z m-40
-12 c0 -2 -7 -7 -16 -10 -8 -3 -12 -2 -9 4 6 10 25 14 25 6z m153 -358 c-4
-19 -10 -25 -20 -21 -12 5 -14 1 -8 -15 4 -13 2 -22 -4 -22 -6 0 -11 8 -11 18
0 10 -5 23 -12 30 -9 9 -7 13 8 17 10 4 26 10 34 15 19 10 19 10 13 -22z m349
-187 c4 0 10 -10 13 -21 4 -13 16 -20 33 -21 17 -1 21 -3 10 -6 -21 -5 -23
-19 -5 -26 6 -3 -2 -6 -20 -6 -36 -1 -57 18 -21 20 23 1 22 1 -2 8 -14 4 -25
12 -25 19 0 6 -9 18 -19 25 -19 14 -19 14 5 12 13 -1 27 -3 31 -4z m162 -14
c-3 -8 3 -13 15 -13 11 0 18 3 15 7 -4 7 19 19 37 19 5 0 9 -6 9 -14 0 -7 -27
-25 -61 -40 -61 -26 -88 -34 -56 -15 24 14 21 24 -10 39 l-28 13 25 8 c40 11
60 10 54 -4z"/>
<path d="M301 1174 c0 -11 3 -14 6 -6 3 7 2 16 -1 19 -3 4 -6 -2 -5 -13z"/>
<path d="M120 1161 c0 -6 12 -16 26 -21 33 -13 34 -13 34 5 0 8 -6 15 -14 15
-8 0 -21 3 -30 6 -9 3 -16 1 -16 -5z"/>
<path d="M198 1151 c-6 -24 -1 -37 17 -43 19 -6 19 -6 -2 -7 -13 -1 -23 -6
-23 -12 0 -6 12 -9 28 -7 17 2 27 9 27 20 0 9 4 20 8 24 4 4 7 11 7 15 0 8
-59 18 -62 10z"/>
<path d="M2568 969 c-2 -6 3 -26 12 -44 12 -25 21 -32 48 -33 17 -1 32 0 32 1
0 2 -20 22 -44 46 -27 26 -45 38 -48 30z"/>
<path d="M2480 835 c-97 -137 -264 -277 -425 -358 -121 -61 -329 -117 -431
-117 -46 0 -56 -12 -26 -29 9 -6 12 -11 6 -11 -6 0 -19 9 -29 20 -24 27 -56
27 -52 0 5 -30 20 -41 66 -50 27 -5 42 -3 44 4 2 6 4 -2 4 -17 0 -16 6 -34 12
-40 19 -19 260 -20 315 -2 31 11 52 13 64 6 21 -11 72 -2 195 33 48 14 91 26
95 26 4 0 0 5 -8 10 -13 8 -12 10 4 10 14 0 101 26 124 36 1 1 9 32 16 70 8
38 15 60 15 48 1 -26 29 -27 37 -2 3 11 3 22 0 25 -3 4 -6 -2 -6 -12 0 -18 -1
-18 -15 1 -22 29 -18 72 10 100 33 32 46 59 39 77 -3 8 -1 18 5 22 6 3 11 2
11 -4 0 -5 6 -11 13 -14 6 -2 4 -3 -6 -1 -9 1 -15 -2 -11 -7 11 -18 44 -10 44
12 0 11 -4 18 -9 14 -6 -3 -15 4 -22 16 -10 19 -9 21 6 15 15 -5 16 -4 5 9 -7
9 -10 18 -6 22 3 3 6 1 6 -6 0 -7 5 -9 10 -6 6 3 10 21 10 40 0 19 -4 37 -10
40 -5 3 -10 -2 -10 -12 -1 -17 -1 -17 -11 0 -5 9 -14 17 -19 17 -6 0 -10 -8
-11 -17 0 -15 -2 -15 -8 2 -10 25 -3 52 15 59 8 3 14 10 14 16 0 6 -5 8 -12 4
-8 -5 -9 -2 -5 9 3 10 5 17 4 17 -2 0 -27 -34 -57 -75z m47 -87 c-3 -8 -6 -5
-6 6 -1 11 2 17 5 13 3 -3 4 -12 1 -19z m-574 -415 c-7 -2 -21 -2 -30 0 -10 3
-4 5 12 5 17 0 24 -2 18 -5z m244 -10 c-20 -2 -52 -2 -70 0 -17 2 0 4 38 4 39
0 53 -2 32 -4z m-522 -23 c3 -5 2 -10 -4 -10 -5 0 -13 5 -16 10 -3 6 -2 10 4
10 5 0 13 -4 16 -10z m25 -30 c0 -5 -2 -10 -4 -10 -3 0 -8 5 -11 10 -3 6 -1
10 4 10 6 0 11 -4 11 -10z m355 -20 c3 -6 -1 -7 -9 -4 -18 7 -21 14 -7 14 6 0
13 -4 16 -10z"/>
<path d="M2611 864 c0 -11 3 -14 6 -6 3 7 2 16 -1 19 -3 4 -6 -2 -5 -13z"/>
<path d="M2680 866 c0 -9 5 -16 10 -16 6 0 10 4 10 9 0 6 -4 13 -10 16 -5 3
-10 -1 -10 -9z"/>
<path d="M2651 768 c0 -9 -4 -25 -7 -35 -5 -14 -4 -15 5 -7 7 7 11 22 8 35 -2
13 -5 16 -6 7z"/>
<path d="M2594 708 c3 -7 9 -21 12 -30 4 -10 10 -18 15 -18 5 0 3 14 -6 30
-15 28 -33 44 -21 18z"/>
<path d="M750 551 c0 -10 29 -36 34 -30 1 2 -6 12 -16 22 -10 9 -18 13 -18 8z"/>
<path d="M646 411 c-3 -5 1 -11 9 -15 15 -6 29 7 18 18 -9 9 -21 8 -27 -3z"/>
<path d="M1800 201 c-46 -5 -55 -9 -55 -26 0 -13 8 -21 24 -23 18 -3 22 0 18
12 -5 13 1 16 33 16 29 0 40 4 40 15 0 8 -1 14 -2 13 -2 -1 -28 -4 -58 -7z"/>
</g>
</svg>
