<?xml version="1.0" standalone="no"?>
<!DOCTYPE svg PUBLIC "-//W3C//DTD SVG 20010904//EN"
 "http://www.w3.org/TR/2001/REC-SVG-20010904/DTD/svg10.dtd">
<svg version="1.0" xmlns="http://www.w3.org/2000/svg"
 width="16.000000pt" height="16.000000pt" viewBox="0 0 16.000000 16.000000"
 preserveAspectRatio="xMidYMid meet">
<metadata>
Created by potrace 1.11, written by Peter Selinger 2001-2013
</metadata>
<g transform="translate(0.000000,16.000000) scale(0.005229,-0.005229)"
fill="#000000" stroke="none">
<path d="M1700 3030 c-8 -6 -78 -10 -155 -10 -161 1 -288 -8 -295 -20 -3 -4
-25 -13 -50 -20 -25 -7 -49 -16 -55 -20 -17 -13 -168 -71 -173 -66 -2 3 12 13
32 22 20 10 36 24 36 32 0 20 -40 6 -67 -24 -13 -15 -23 -20 -23 -12 -1 7 -7
2 -15 -12 -17 -31 -73 -59 -189 -96 -76 -24 -98 -36 -140 -77 -49 -47 -50 -48
-16 -32 19 10 50 28 68 42 17 13 32 20 32 15 0 -6 -22 -24 -50 -42 -53 -34
-85 -68 -138 -144 -18 -27 -36 -45 -39 -42 -4 3 7 25 24 49 47 67 49 71 24 58
-11 -7 -21 -8 -21 -4 0 11 -62 -116 -70 -142 -3 -11 -11 -21 -18 -21 -7 -1
-24 -2 -39 -3 -27 -2 -27 -2 -9 -16 11 -8 16 -15 10 -15 -5 0 -2 -5 6 -10 10
-7 11 -10 3 -11 -7 -1 -17 -2 -23 -3 -5 0 -16 -11 -25 -23 -11 -16 -12 -22 -2
-26 9 -3 9 -8 -3 -21 -8 -10 -19 -26 -25 -36 -22 -37 -65 -98 -109 -154 -25
-33 -46 -66 -46 -74 0 -9 -6 -23 -14 -31 -38 -42 -92 -444 -65 -477 11 -13 7
-96 -7 -142 -5 -18 -3 -21 10 -16 13 5 15 0 13 -24 -2 -17 -10 -39 -18 -48
-12 -16 -12 -17 5 -11 14 6 17 4 12 -8 -3 -9 0 -15 10 -15 8 0 12 -5 9 -10 -4
-6 -1 -17 5 -25 7 -8 9 -15 5 -15 -4 0 -2 -7 5 -15 6 -8 9 -19 5 -25 -3 -5 -1
-10 4 -10 6 0 11 -4 11 -10 0 -5 -9 -10 -20 -10 -18 0 -26 -16 -21 -43 1 -5 3
-21 5 -35 12 -91 81 -290 107 -312 13 -11 111 -174 135 -225 14 -30 35 -57 45
-60 10 -4 19 -13 19 -22 0 -9 12 -26 26 -39 20 -19 29 -22 45 -14 11 6 17 15
14 21 -4 5 0 9 9 9 8 0 16 5 18 12 2 6 9 8 16 4 8 -5 8 -14 1 -33 -11 -30 -10
-33 53 -67 33 -18 63 -26 100 -27 51 -1 52 -1 19 -11 -33 -9 -33 -10 -15 -27
11 -11 41 -42 68 -70 36 -38 54 -50 68 -45 11 3 37 -5 63 -21 25 -14 58 -27
74 -28 16 -1 27 -5 24 -9 -2 -5 6 -8 19 -9 13 0 38 -2 55 -3 22 -3 31 0 26 8
-5 8 -3 8 8 0 8 -7 35 -16 61 -22 47 -9 48 -9 42 14 -4 15 -2 24 5 24 6 0 11
-11 11 -24 0 -19 7 -27 33 -34 84 -25 149 -34 210 -29 43 3 67 1 70 -6 1 -5
12 0 24 12 17 19 21 20 26 7 4 -9 14 -16 23 -16 12 0 15 7 12 23 -4 20 -1 23
19 19 15 -3 23 0 23 9 0 10 3 11 8 3 11 -19 81 -24 97 -8 8 8 28 17 44 20 17
4 31 10 31 15 0 5 3 8 8 7 23 -5 142 39 142 54 0 4 5 8 11 8 5 0 8 -4 5 -9 -4
-5 -1 -11 6 -13 20 -7 122 12 129 24 4 6 14 8 24 5 10 -4 43 7 82 28 73 38 93
43 93 20 0 -24 57 22 64 51 7 27 21 31 30 9 9 -24 33 -18 38 10 3 13 1 22 -3
19 -5 -3 -9 2 -9 10 0 10 6 13 15 10 8 -4 15 -1 15 5 0 6 16 19 35 28 19 9 32
20 29 25 -9 15 7 30 20 19 9 -8 16 -1 28 24 8 19 11 32 5 28 -5 -3 -7 -1 -4 5
4 5 29 16 57 23 38 10 52 19 60 40 6 15 27 44 46 65 19 20 36 47 37 58 1 12
12 31 25 44 19 19 24 31 22 45 -1 1 13 35 30 76 20 50 30 91 30 127 0 30 19
128 45 228 48 189 53 221 31 229 -16 6 -10 57 8 69 7 5 6 8 -3 8 -11 0 -9 4 5
14 16 13 17 15 3 21 -18 7 -18 3 -23 126 -2 53 -12 123 -21 155 -10 33 -19 66
-20 74 -2 8 -4 15 -5 15 -1 0 -3 11 -5 25 -3 24 -79 228 -109 295 -8 17 -19
41 -25 55 -14 32 -40 76 -71 120 -19 27 -31 34 -50 32 l-25 -2 23 13 23 13
-24 22 c-13 12 -33 22 -45 22 -14 0 -26 11 -38 35 -9 20 -28 42 -43 50 -14 8
-60 43 -101 79 -41 36 -80 66 -85 66 -6 0 -16 9 -23 20 -7 11 -19 20 -28 20
-8 0 -13 4 -9 9 3 5 -11 15 -30 22 -19 7 -35 19 -35 25 0 18 -59 57 -87 59
-12 0 -23 -3 -23 -7 0 -5 -11 -1 -25 8 -20 13 -23 19 -14 30 12 14 2 19 -30
15 -7 -2 -10 2 -6 8 4 7 -4 11 -19 11 -14 0 -27 4 -31 9 -3 6 -13 10 -23 10
-9 0 -44 5 -76 11 -33 6 -66 8 -73 6 -8 -3 -30 3 -51 14 -42 23 -42 23 -62 10z
m139 -166 c-17 -21 -35 -17 -53 10 -20 31 -3 39 37 19 23 -12 26 -17 16 -29z
m426 -94 l20 -25 -22 19 c-13 11 -23 24 -23 29 0 6 1 8 3 6 1 -2 11 -15 22
-29z m-499 -86 c242 -50 443 -162 615 -342 228 -239 342 -542 325 -862 -16
-316 -133 -570 -365 -792 -156 -150 -319 -241 -528 -294 -126 -32 -305 -44
-331 -22 -9 8 -24 18 -32 22 -8 4 -4 -2 10 -13 35 -29 18 -26 -31 4 -23 15
-37 30 -33 37 4 7 3 8 -4 4 -7 -4 -12 -3 -12 3 0 12 -39 35 -47 27 -3 -3 9
-23 27 -46 32 -40 24 -55 -13 -23 -11 10 -17 12 -13 6 4 -7 2 -13 -3 -13 -6 0
-11 2 -11 4 0 2 -3 12 -7 22 -5 13 -3 15 7 9 8 -5 11 -4 6 3 -4 6 -14 8 -23 5
-10 -4 -14 -2 -10 4 8 12 -17 36 -26 26 -4 -3 -7 19 -7 50 0 31 -4 58 -8 61
-5 3 -31 -17 -57 -44 -31 -31 -52 -46 -56 -39 -5 8 -16 6 -38 -7 l-31 -18 -67
33 c-226 111 -446 348 -547 587 -154 364 -118 767 98 1099 80 124 233 274 356
350 147 90 316 152 475 174 93 13 282 5 381 -15z m342 -4 c-7 -11 -19 -18 -26
-15 -8 3 -19 5 -25 5 -12 1 40 28 56 29 4 1 2 -8 -5 -19z m15 -15 c-3 -9 -8
-14 -10 -11 -3 3 -2 9 2 15 9 16 15 13 8 -4z m7 -75 c0 -5 -2 -10 -4 -10 -3 0
-8 5 -11 10 -3 6 -1 10 4 10 6 0 11 -4 11 -10z m475 -160 c-3 -5 -11 -10 -16
-10 -6 0 -7 5 -4 10 3 6 11 10 16 10 6 0 7 -4 4 -10z m78 -154 c3 -8 0 -17 -8
-20 -15 -5 -39 17 -28 27 11 12 31 8 36 -7z m-2333 -182 c0 -2 -7 -4 -15 -4
-8 0 -15 4 -15 10 0 5 7 7 15 4 8 -4 15 -8 15 -10z m67 10 c-3 -3 -12 -4 -19
-1 -8 3 -5 6 6 6 11 1 17 -2 13 -5z m-37 -14 c0 -5 -5 -10 -11 -10 -5 0 -7 5
-4 10 3 6 8 10 11 10 2 0 4 -4 4 -10z m1044 -1767 c-10 -7 -25 -13 -33 -13
-12 0 -11 3 3 13 10 8 25 14 34 14 11 0 11 -3 -4 -14z m126 -74 c-7 -11 -14
-19 -16 -16 -7 7 7 37 17 37 6 0 5 -9 -1 -21z m50 -4 c-7 -8 -17 -15 -22 -15
-6 0 -5 7 2 15 7 8 17 15 22 15 6 0 5 -7 -2 -15z m-560 -85 c0 -5 -4 -10 -10
-10 -5 0 -10 5 -10 10 0 6 5 10 10 10 6 0 10 -4 10 -10z m85 -10 c16 -18 16
-20 2 -20 -9 0 -21 9 -27 20 -6 11 -7 20 -2 20 5 0 17 -9 27 -20z m49 -16 c7
-19 2 -18 -19 6 -16 17 -16 20 -3 15 9 -4 19 -13 22 -21z m551 8 c-3 -3 -11 0
-18 7 -9 10 -8 11 6 5 10 -3 15 -9 12 -12z"/>
<path d="M1000 2318 c-54 -36 -54 -105 -1 -133 l29 -15 -4 -102 c-14 -317 -43
-606 -94 -928 -45 -283 -55 -379 -41 -413 14 -36 70 -61 105 -47 55 21 58 35
72 378 7 174 16 355 19 402 15 200 37 424 56 548 10 73 19 135 19 138 0 3 26
-9 58 -26 85 -45 175 -123 247 -214 60 -74 64 -81 51 -101 -98 -149 -186 -363
-186 -450 0 -75 42 -150 101 -180 40 -21 115 -19 165 5 57 28 139 118 172 187
24 51 27 70 27 158 0 89 -4 108 -31 175 -18 41 -46 99 -63 129 l-32 53 56 64
c75 85 208 194 237 194 3 0 8 -17 11 -37 3 -21 14 -99 25 -173 19 -127 39
-305 62 -567 13 -150 44 -213 104 -213 35 1 57 15 74 47 18 33 14 64 -13 108
-66 107 -73 150 -90 575 -3 74 -8 174 -11 221 l-5 87 28 6 c88 22 100 126 17
142 -52 10 -153 -21 -227 -69 -62 -39 -225 -195 -285 -272 l-31 -40 -27 35
c-57 73 -202 209 -276 258 -87 56 -148 80 -228 88 -47 5 -60 2 -90 -18z m605
-632 c34 -76 55 -165 55 -228 0 -68 -42 -157 -82 -176 -55 -26 -111 20 -133
110 -8 31 9 111 37 178 23 55 87 170 94 170 3 0 16 -24 29 -54z"/>
<path d="M2088 2923 c6 -2 18 -2 25 0 6 3 1 5 -13 5 -14 0 -19 -2 -12 -5z"/>
</g>
</svg>
