<svg version="1" xmlns="http://www.w3.org/2000/svg" width="408" height="408" viewBox="0 0 306.000000 306.000000"><path d="M170 3c-.8.6-7.8 1-15.5 1-16.1-.1-28.8.8-29.5 2-.3.4-2.5 1.3-5 2s-4.9 1.6-5.5 2c-1.7 1.3-16.8 7.1-17.3 6.6-.2-.3 1.2-1.3 3.2-2.2 2-1 3.6-2.4 3.6-3.2 0-2-4-.6-6.7 2.4-1.3 1.5-2.3 2-2.3 1.2-.1-.7-.7-.2-1.5 1.2-1.7 3.1-7.3 5.9-18.9 9.6-7.6 2.4-9.8 3.6-14 7.7-4.9 4.7-5 4.8-1.6 3.2 1.9-1 5-2.8 6.8-4.2 1.7-1.3 3.2-2 3.2-1.5 0 .6-2.2 2.4-5 4.2-5.3 3.4-8.5 6.8-13.8 14.4-1.8 2.7-3.6 4.5-3.9 4.2-.4-.3.7-2.5 2.4-4.9 4.7-6.7 4.9-7.1 2.4-5.8-1.1.7-2.1.8-2.1.4 0-1.1-6.2 11.6-7 14.2-.3 1.1-1.1 2.1-1.8 2.1-.7.1-2.4.2-3.9.3-2.7.2-2.7.2-.9 1.6 1.1.8 1.6 1.5 1 1.5-.5 0-.2.5.6 1 1 .7 1.1 1 .3 1.1-.7.1-1.7.2-2.3.3-.5 0-1.6 1.1-2.5 2.3-1.1 1.6-1.2 2.2-.2 2.6.9.3.9.8-.3 2.1-.8 1-1.9 2.6-2.5 3.6-2.2 3.7-6.5 9.8-10.9 15.4-2.5 3.3-4.6 6.6-4.6 7.4 0 .9-.6 2.3-1.4 3.1-3.8 4.2-9.2 44.4-6.5 47.7 1.1 1.3.7 9.6-.7 14.2-.5 1.8-.3 2.1 1 1.6s1.5 0 1.3 2.4c-.2 1.7-1 3.9-1.8 4.8-1.2 1.6-1.2 1.7.5 1.1 1.4-.6 1.7-.4 1.2.8-.3.9 0 1.5 1 1.5.8 0 1.2.5.9 1-.4.6-.1 1.7.5 2.5.7.8.9 1.5.5 1.5s-.2.7.5 1.5c.6.8.9 1.9.5 2.5-.3.5-.1 1 .4 1 .6 0 1.1.4 1.1 1 0 .5-.9 1-2 1-1.8 0-2.6 1.6-2.1 4.3.1.5.3 2.1.5 3.5 1.2 9.1 8.1 29 10.7 31.2 1.3 1.1 11.1 17.4 13.5 22.5 1.4 3 3.5 5.7 4.5 6 1 .4 1.9 1.3 1.9 2.2 0 .9 1.2 2.6 2.6 3.9 2 1.9 2.9 2.2 4.5 1.4 1.1-.6 1.7-1.5 1.4-2.1-.4-.5 0-.9.9-.9.8 0 1.6-.5 1.8-1.2.2-.6.9-.8 1.6-.4.8.5.8 1.4.1 3.3-1.1 3-1 3.3 5.3 6.7 3.3 1.8 6.3 2.6 10 2.7 5.1.1 5.2.1 1.9 1.1-3.3.9-3.3 1-1.5 2.7 1.1 1.1 4.1 4.2 6.8 7 3.6 3.8 5.4 5 6.8 4.5 1.1-.3 3.7.5 6.3 2.1 2.5 1.4 5.8 2.7 7.4 2.8 1.6.1 2.7.5 2.4.9-.2.5.6.8 1.9.9 1.3 0 3.8.2 5.5.3 2.2.3 3.1 0 2.6-.8s-.3-.8.8 0c.8.7 3.5 1.6 6.1 2.2 4.7.9 4.8.9 4.2-1.4-.4-1.5-.2-2.4.5-2.4.6 0 1.1 1.1 1.1 2.4 0 1.9.7 2.7 3.3 3.4 8.4 2.5 14.9 3.4 21 2.9 4.3-.3 6.7-.1 7 .6.1.5 1.2 0 2.4-1.2 1.7-1.9 2.1-2 2.6-.7.4.9 1.4 1.6 2.3 1.6 1.2 0 1.5-.7 1.2-2.3-.4-2-.1-2.3 1.9-1.9 1.5.3 2.3 0 2.3-.9 0-1 .3-1.1.8-.3 1.1 1.9 8.1 2.4 9.7.8.8-.8 2.8-1.7 4.4-2 1.7-.4 3.1-1 3.1-1.5s.3-.8.8-.7c2.3.5 14.2-3.9 14.2-5.4 0-.4.5-.8 1.1-.8.5 0 .8.4.5.9-.4.5-.1 1.1.6 1.3 2 .7 12.2-1.2 12.9-2.4.4-.6 1.4-.8 2.4-.5 1 .4 4.3-.7 8.2-2.8 7.3-3.8 9.3-4.3 9.3-2 0 2.4 5.7-2.2 6.4-5.1.7-2.7 2.1-3.1 3-.9.9 2.4 3.3 1.8 3.8-1 .3-1.3.1-2.2-.3-1.9-.5.3-.9-.2-.9-1 0-1 .6-1.3 1.5-1 .8.4 1.5.1 1.5-.5s1.6-1.9 3.5-2.8c1.9-.9 3.2-2 2.9-2.5-.9-1.5.7-3 2-1.9.9.8 1.6.1 2.8-2.4.8-1.9 1.1-3.2.5-2.8-.5.3-.7.1-.4-.5.4-.5 2.9-1.6 5.7-2.3 3.8-1 5.2-1.9 6-4 .6-1.5 2.7-4.4 4.6-6.5 1.9-2 3.6-4.7 3.7-5.8.1-1.2 1.2-3.1 2.5-4.4 1.9-1.9 2.4-3.1 2.2-4.5-.1-.1 1.3-3.5 3-7.6 2-5 3-9.1 3-12.7 0-3 1.9-12.8 4.5-22.8 4.8-18.9 5.3-22.1 3.1-22.9-1.6-.6-1-5.7.8-6.9.7-.5.6-.8-.3-.8-1.1 0-.9-.4.5-1.4 1.6-1.3 1.7-1.5.3-2.1-1.8-.7-1.8-.3-2.3-12.6-.2-5.3-1.2-12.3-2.1-15.5-1-3.3-1.9-6.6-2-7.4-.2-.8-.4-1.5-.5-1.5-.1 0-.3-1.1-.5-2.5-.3-2.4-7.9-22.8-10.9-29.5-.8-1.7-1.9-4.1-2.5-5.5-1.4-3.2-4-7.6-7.1-12-1.9-2.7-3.1-3.4-5-3.2l-2.5.2 2.3-1.3 2.3-1.3-2.4-2.2c-1.3-1.2-3.3-2.2-4.5-2.2-1.4 0-2.6-1.1-3.8-3.5-.9-2-2.8-4.2-4.3-5-1.4-.8-6-4.3-10.1-7.9-4.1-3.6-8-6.6-8.5-6.6-.6 0-1.6-.9-2.3-2-.7-1.1-1.9-2-2.8-2-.8 0-1.3-.4-.9-.9.3-.5-1.1-1.5-3-2.2-1.9-.7-3.5-1.9-3.5-2.5 0-1.8-5.9-5.7-8.7-5.9-1.2 0-2.3.3-2.3.7 0 .5-1.1.1-2.5-.8-2-1.3-2.3-1.9-1.4-3 1.2-1.4.2-1.9-3-1.5-.7.2-1-.2-.6-.8.4-.7-.4-1.1-1.9-1.1-1.4 0-2.7-.4-3.1-.9-.3-.6-1.3-1-2.3-1-.9 0-4.4-.5-7.6-1.1-3.3-.6-6.6-.8-7.3-.6-.8.3-3-.3-5.1-1.4-4.2-2.3-4.2-2.3-6.2-1zm13.9 16.6c-1.7 2.1-3.5 1.7-5.3-1-2-3.1-.3-3.9 3.7-1.9 2.3 1.2 2.6 1.7 1.6 2.9zm42.6 9.4l2 2.5-2.2-1.9c-1.3-1.1-2.3-2.4-2.3-2.9 0-.6.1-.8.3-.6.1.2 1.1 1.5 2.2 2.9zm-49.9 8.6c24.2 5 44.3 16.2 61.5 34.2 22.8 23.9 34.2 54.2 32.5 86.2-1.6 31.6-13.3 57-36.5 79.2-15.6 15-31.9 24.1-52.8 29.4-12.6 3.2-30.5 4.4-33.1 2.2-.9-.8-2.4-1.8-3.2-2.2-.8-.4-.4.2 1 1.3 3.5 2.9 1.8 2.6-3.1-.4-2.3-1.5-3.7-3-3.3-3.7.4-.7.3-.8-.4-.4s-1.2.3-1.2-.3c0-1.2-3.9-3.5-4.7-2.7-.3.3.9 2.3 2.7 4.6 3.2 4 2.4 5.5-1.3 2.3-1.1-1-1.7-1.2-1.3-.6.4.7.2 1.3-.3 1.3-.6 0-1.1-.2-1.1-.4s-.3-1.2-.7-2.2c-.5-1.3-.3-1.5.7-.9.8.5 1.1.4.6-.3-.4-.6-1.4-.8-2.3-.5-1 .4-1.4.2-1-.4.8-1.2-1.7-3.6-2.6-2.6-.4.3-.7-1.9-.7-5s-.4-5.8-.8-6.1c-.5-.3-3.1 1.7-5.7 4.4-3.1 3.1-5.2 4.6-5.6 3.9-.5-.8-1.6-.6-3.8.7l-3.1 1.8-6.7-3.3c-22.6-11.1-44.6-34.8-54.7-58.7-15.4-36.4-11.8-76.7 9.8-109.9 8-12.4 23.3-27.4 35.6-35 14.7-9 31.6-15.2 47.5-17.4 9.3-1.3 28.2-.5 38.1 1.5zm34.2.4c-.7 1.1-1.9 1.8-2.6 1.5-.8-.3-1.9-.5-2.5-.5-1.2-.1 4-2.8 5.6-2.9.4-.1.2.8-.5 1.9zm1.5 1.5c-.3.9-.8 1.4-1 1.1-.3-.3-.2-.9.2-1.5.9-1.6 1.5-1.3.8.4zm.7 7.5c0 .5-.2 1-.4 1-.3 0-.8-.5-1.1-1-.3-.6-.1-1 .4-1 .6 0 1.1.4 1.1 1zm47.5 16c-.3.5-1.1 1-1.6 1-.6 0-.7-.5-.4-1 .3-.6 1.1-1 1.6-1 .6 0 .7.4.4 1zm7.8 15.4c.3.8 0 1.7-.8 2-1.5.5-3.9-1.7-2.8-2.7 1.1-1.2 3.1-.8 3.6.7zM35 96.6c0 .2-.7.4-1.5.4s-1.5-.4-1.5-1c0-.5.7-.7 1.5-.4.8.4 1.5.8 1.5 1zm6.7-1c-.3.3-1.2.4-1.9.1-.8-.3-.5-.6.6-.6 1.1-.1 1.7.2 1.3.5zM38 97c0 .5-.5 1-1.1 1-.5 0-.7-.5-.4-1 .3-.6.8-1 1.1-1 .2 0 .4.4.4 1zm104.4 176.7c-1 .7-2.5 1.3-3.3 1.3-1.2 0-1.1-.3.3-1.3 1-.8 2.5-1.4 3.4-1.4 1.1 0 1.1.3-.4 1.4zm12.6 7.4c-.7 1.1-1.4 1.9-1.6 1.6-.7-.7.7-3.7 1.7-3.7.6 0 .5.9-.1 2.1zm5 .4c-.7.8-1.7 1.5-2.2 1.5-.6 0-.5-.7.2-1.5s1.7-1.5 2.2-1.5c.6 0 .5.7-.2 1.5zm-56 8.5c0 .5-.4 1-1 1-.5 0-1-.5-1-1 0-.6.5-1 1-1 .6 0 1 .4 1 1zm8.5 1c1.6 1.8 1.6 2 .2 2-.9 0-2.1-.9-2.7-2-.6-1.1-.7-2-.2-2 .5 0 1.7.9 2.7 2zm4.9 1.6c.7 1.9.2 1.8-1.9-.6-1.6-1.7-1.6-2-.3-1.5.9.4 1.9 1.3 2.2 2.1zm55.1-.8c-.3.3-1.1 0-1.8-.7-.9-1-.8-1.1.6-.5 1 .3 1.5.9 1.2 1.2z"/><path d="M100 74.2c-5.4 3.6-5.4 10.5-.1 13.3l2.9 1.5-.4 10.2c-1.4 31.7-4.3 60.6-9.4 92.8-4.5 28.3-5.5 37.9-4.1 41.3 1.4 3.6 7 6.1 10.5 4.7 5.5-2.1 5.8-3.5 7.2-37.8.7-17.4 1.6-35.5 1.9-40.2 1.5-20 3.7-42.4 5.6-54.8 1-7.3 1.9-13.5 1.9-13.8 0-.3 2.6.9 5.8 2.6 8.5 4.5 17.5 12.3 24.7 21.4 6 7.4 6.4 8.1 5.1 10.1-9.8 14.9-18.6 36.3-18.6 45 0 7.5 4.2 15 10.1 18 4 2.1 11.5 1.9 16.5-.5 5.7-2.8 13.9-11.8 17.2-18.7 2.4-5.1 2.7-7 2.7-15.8 0-8.9-.4-10.8-3.1-17.5-1.8-4.1-4.6-9.9-6.3-12.9l-3.2-5.3 5.6-6.4c7.5-8.5 20.8-19.4 23.7-19.4.3 0 .8 1.7 1.1 3.7.3 2.1 1.4 9.9 2.5 17.3 1.9 12.7 3.9 30.5 6.2 56.7 1.3 15 4.4 21.3 10.4 21.3 3.5-.1 5.7-1.5 7.4-4.7 1.8-3.3 1.4-6.4-1.3-10.8-6.6-10.7-7.3-15-9-57.5-.3-7.4-.8-17.4-1.1-22.1l-.5-8.7 2.8-.6c8.8-2.2 10-12.6 1.7-14.2-5.2-1-15.3 2.1-22.7 6.9-6.2 3.9-22.5 19.5-28.5 27.2l-3.1 4-2.7-3.5c-5.7-7.3-20.2-20.9-27.6-25.8-8.7-5.6-14.8-8-22.8-8.8-4.7-.5-6-.2-9 1.8zm60.5 63.2c3.4 7.6 5.5 16.5 5.5 22.8 0 6.8-4.2 15.7-8.2 17.6-5.5 2.6-11.1-2-13.3-11-.8-3.1.9-11.1 3.7-17.8 2.3-5.5 8.7-17 9.4-17 .3 0 1.6 2.4 2.9 5.4zM208.8 13.7c.6.2 1.8.2 2.5 0 .6-.3.1-.5-1.3-.5-1.4 0-1.9.2-1.2.5z"/></svg>